# xmcd
#
# Track frame offsets: 
#        150
#        12578
#        25010
#        38458
#        48275
#        64521
#        80334
#        95482
#        105932
#        120056
#        134288
#        149041
#        164754
#        181711
#        196323
#        211475
#        225782
#        231553
#        246584
#        261796
#        273254
#        287882
#        299134
#        311137
#        325815
#        340195
#
# Disc length: 4711 seconds
#
# Revision: 0
# Processed by: cddbd v1.5.1PL2 Copyright (c) Steve Scherf et al.
# Submitted via: ExactAudioCopy v0.95b4
#
DISCID=7912651a
DTITLE=El Recodo - Lo mas nuevo y lo mejor
DYEAR=2005
DGENRE=Banda
TTITLE0=Crap intro
TTITLE1=Que mas quisiera
TTITLE2=Ni que estuvieras tan buena
TTITLE3=Me gusta estar contigo
TTITLE4=La techno cumbia
TTITLE5=Camaron pelao
TTITLE6=Maldito beneno
TTITLE7=Besos y caricias
TTITLE8=Quien mas que tu
TTITLE9=Que te ruege quien te quiere
TTITLE10=Te doy las gracias
TTITLE11=Ya soy feliz
TTITLE12=Para seguir
TTITLE13=Por ti
TTITLE14=La banda El Recodo llego
TTITLE15=Aca entre nos
TTITLE16=Agua dulce
TTITLE17=Y llegaste tu
TTITLE18=Parece mentira
TTITLE19=Delante de mi
TTITLE20=Yo se que te acordaras
TTITLE21=Te ofrezco un corazon
TTITLE22=Deja
TTITLE23=Gracias por tu amor
TTITLE24=La chiquilla
TTITLE25=Como pudiste
EXTD=
EXTT0=
EXTT1=
EXTT2=
EXTT3=
EXTT4=
EXTT5=
EXTT6=
EXTT7=
EXTT8=
EXTT9=
EXTT10=
EXTT11=
EXTT12=
EXTT13=
EXTT14=
EXTT15=
EXTT16=
EXTT17=
EXTT18=
EXTT19=
EXTT20=
EXTT21=
EXTT22=
EXTT23=
EXTT24=
EXTT25=
PLAYORDER=
